<svg width="154" height="36" viewBox="0 0 154 36" fill="none" xmlns="http://www.w3.org/2000/svg">
<circle opacity="0.2" cx="17.7145" cy="17.7145" r="17.7145" fill="url(#paint0_linear_5004_6941)"/>
<circle opacity="0.2" cx="17.7135" cy="17.7139" r="12.9581" fill="url(#paint1_linear_5004_6941)"/>
<circle cx="17.7159" cy="17.7147" r="7.35237" fill="url(#paint2_linear_5004_6941)"/>
<path d="M65.6412 14.4517H62.6964C62.6124 13.9688 62.4575 13.541 62.2318 13.1683C62.0061 12.7904 61.7253 12.4702 61.3893 12.2077C61.0534 11.9452 60.6702 11.7484 60.2397 11.6172C59.8146 11.4807 59.3553 11.4125 58.8618 11.4125C57.9852 11.4125 57.2083 11.6329 56.5312 12.0739C55.854 12.5095 55.3239 13.1499 54.9407 13.9951C54.5575 14.8349 54.3659 15.8611 54.3659 17.0737C54.3659 18.3073 54.5575 19.3466 54.9407 20.1917C55.3291 21.0316 55.8593 21.6667 56.5312 22.0972C57.2083 22.5224 57.9826 22.735 58.854 22.735C59.3369 22.735 59.7883 22.672 60.2082 22.546C60.6334 22.4148 61.014 22.2232 61.3499 21.9712C61.6911 21.7192 61.9772 21.4095 62.2082 21.0421C62.4444 20.6747 62.6071 20.2547 62.6964 19.7823L65.6412 19.798C65.5309 20.5644 65.2921 21.2836 64.9246 21.9555C64.5625 22.6274 64.0874 23.2205 63.4995 23.7349C62.9116 24.2441 62.2239 24.643 61.4366 24.9317C60.6492 25.2152 59.7752 25.3569 58.8146 25.3569C57.3973 25.3569 56.1323 25.0289 55.0194 24.3727C53.9066 23.7166 53.03 22.7691 52.3896 21.5303C51.7492 20.2915 51.429 18.8059 51.429 17.0737C51.429 15.3362 51.7518 13.8507 52.3975 12.6171C53.0431 11.3783 53.9223 10.4309 55.0352 9.77471C56.148 9.11856 57.4078 8.79048 58.8146 8.79048C59.7122 8.79048 60.5468 8.91646 61.3185 9.16843C62.0901 9.42039 62.7777 9.79046 63.3814 10.2786C63.985 10.7616 64.4811 11.3547 64.8695 12.0581C65.2632 12.7562 65.5204 13.5541 65.6412 14.4517Z" fill="white"/>
<path d="M71.6705 25.3806C70.9041 25.3806 70.2139 25.2441 69.5997 24.9711C68.9908 24.6929 68.5079 24.2835 68.1509 23.7428C67.7992 23.2021 67.6234 22.5355 67.6234 21.7429C67.6234 21.0605 67.7494 20.4962 68.0013 20.05C68.2533 19.6038 68.5971 19.2469 69.0328 18.9792C69.4685 18.7115 69.9593 18.5094 70.5052 18.3729C71.0564 18.2312 71.6259 18.1288 72.2138 18.0658C72.9224 17.9923 73.4972 17.9267 73.9382 17.869C74.3791 17.806 74.6993 17.7115 74.8988 17.5855C75.1035 17.4543 75.2058 17.2522 75.2058 16.9792V16.932C75.2058 16.3388 75.03 15.8795 74.6783 15.5541C74.3266 15.2286 73.8201 15.0659 73.1587 15.0659C72.4605 15.0659 71.9067 15.2181 71.4973 15.5226C71.0931 15.827 70.8201 16.1866 70.6784 16.6013L68.0171 16.2233C68.227 15.4885 68.5735 14.8743 69.0564 14.3809C69.5393 13.8822 70.1299 13.5095 70.828 13.2628C71.5262 13.0108 72.2978 12.8849 73.1429 12.8849C73.7256 12.8849 74.3056 12.9531 74.883 13.0896C75.4604 13.2261 75.988 13.4518 76.4656 13.7667C76.9433 14.0764 77.3265 14.499 77.6152 15.0344C77.9092 15.5698 78.0562 16.2391 78.0562 17.0422V25.1365H75.3161V23.4751H75.2216C75.0484 23.811 74.8043 24.126 74.4893 24.4199C74.1796 24.7087 73.7886 24.9422 73.3161 25.1207C72.849 25.2939 72.3004 25.3806 71.6705 25.3806ZM72.4106 23.2861C72.9828 23.2861 73.4789 23.1733 73.8988 22.9475C74.3187 22.7166 74.6416 22.4121 74.8673 22.0342C75.0982 21.6562 75.2137 21.2442 75.2137 20.798V19.3729C75.1245 19.4463 74.9723 19.5146 74.757 19.5776C74.5471 19.6406 74.3109 19.6957 74.0484 19.7429C73.7859 19.7902 73.5261 19.8322 73.2689 19.8689C73.0117 19.9056 72.7886 19.9371 72.5996 19.9634C72.1744 20.0211 71.7939 20.1156 71.4579 20.2468C71.122 20.3781 70.8569 20.5618 70.6627 20.798C70.4684 21.029 70.3713 21.3282 70.3713 21.6956C70.3713 22.2205 70.5629 22.6169 70.9461 22.8846C71.3293 23.1523 71.8175 23.2861 72.4106 23.2861Z" fill="white"/>
<path d="M80.9222 29.6718V13.0423H83.7253V15.0423H83.8906C84.0376 14.7483 84.2449 14.436 84.5127 14.1053C84.7804 13.7693 85.1426 13.4833 85.5992 13.247C86.0559 13.0056 86.6386 12.8849 87.3472 12.8849C88.2816 12.8849 89.1241 13.1237 89.8747 13.6014C90.6306 14.0738 91.229 14.7746 91.6699 15.7037C92.1161 16.6275 92.3392 17.7613 92.3392 19.1051C92.3392 20.4332 92.1214 21.5618 91.6857 22.4909C91.25 23.42 90.6568 24.1286 89.9062 24.6168C89.1556 25.105 88.3052 25.3491 87.3551 25.3491C86.6622 25.3491 86.0874 25.2336 85.6307 25.0026C85.1741 24.7716 84.8066 24.4934 84.5284 24.168C84.2554 23.8373 84.0429 23.525 83.8906 23.231H83.7725V29.6718H80.9222ZM83.7174 19.0894C83.7174 19.8715 83.8276 20.5565 84.0481 21.1445C84.2738 21.7324 84.5966 22.1917 85.0166 22.5224C85.4418 22.8478 85.9562 23.0105 86.5598 23.0105C87.1897 23.0105 87.7173 22.8426 88.1425 22.5066C88.5677 22.1654 88.8879 21.7009 89.1031 21.113C89.3235 20.5198 89.4338 19.8453 89.4338 19.0894C89.4338 18.3388 89.3262 17.6721 89.111 17.0895C88.8957 16.5068 88.5755 16.0501 88.1503 15.7194C87.7252 15.3887 87.195 15.2234 86.5598 15.2234C85.9509 15.2234 85.4339 15.3835 85.0087 15.7037C84.5835 16.0239 84.2607 16.4727 84.0402 17.0501C83.825 17.6275 83.7174 18.3073 83.7174 19.0894Z" fill="white"/>
<path d="M100.819 13.0423V15.247H93.8667V13.0423H100.819ZM95.5832 10.1448H98.4335V21.4988C98.4335 21.882 98.4912 22.1759 98.6067 22.3806C98.7275 22.5801 98.8849 22.7166 99.0792 22.7901C99.2734 22.8636 99.4886 22.9003 99.7248 22.9003C99.9033 22.9003 100.066 22.8872 100.213 22.8609C100.365 22.8347 100.481 22.8111 100.559 22.7901L101.04 25.0184C100.888 25.0708 100.67 25.1286 100.386 25.1916C100.108 25.2546 99.7668 25.2913 99.3626 25.3018C98.6487 25.3228 98.0057 25.2152 97.4335 24.979C96.8614 24.7375 96.4073 24.3648 96.0714 23.8609C95.7407 23.357 95.5779 22.7271 95.5832 21.9712V10.1448Z" fill="white"/>
<path d="M103.203 25.1365V13.0423H106.053V25.1365H103.203ZM104.636 11.3258C104.185 11.3258 103.796 11.1762 103.471 10.877C103.145 10.5726 102.983 10.2078 102.983 9.78258C102.983 9.35215 103.145 8.98733 103.471 8.68812C103.796 8.38367 104.185 8.23145 104.636 8.23145C105.093 8.23145 105.481 8.38367 105.801 8.68812C106.127 8.98733 106.29 9.35215 106.29 9.78258C106.29 10.2078 106.127 10.5726 105.801 10.877C105.481 11.1762 105.093 11.3258 104.636 11.3258Z" fill="white"/>
<path d="M119.787 13.0423L115.48 25.1365H112.331L108.024 13.0423H111.063L113.843 22.0263H113.968L116.756 13.0423H119.787Z" fill="white"/>
<path d="M124.893 25.3806C124.127 25.3806 123.437 25.2441 122.823 24.9711C122.214 24.6929 121.731 24.2835 121.374 23.7428C121.022 23.2021 120.846 22.5355 120.846 21.7429C120.846 21.0605 120.972 20.4962 121.224 20.05C121.476 19.6038 121.82 19.2469 122.256 18.9792C122.691 18.7115 123.182 18.5094 123.728 18.3729C124.279 18.2312 124.849 18.1288 125.437 18.0658C126.145 17.9923 126.72 17.9267 127.161 17.869C127.602 17.806 127.922 17.7115 128.122 17.5855C128.326 17.4543 128.429 17.2522 128.429 16.9792V16.932C128.429 16.3388 128.253 15.8795 127.901 15.5541C127.549 15.2286 127.043 15.0659 126.382 15.0659C125.683 15.0659 125.13 15.2181 124.72 15.5226C124.316 15.827 124.043 16.1866 123.901 16.6013L121.24 16.2233C121.45 15.4885 121.796 14.8743 122.279 14.3809C122.762 13.8822 123.353 13.5095 124.051 13.2628C124.749 13.0108 125.521 12.8849 126.366 12.8849C126.948 12.8849 127.528 12.9531 128.106 13.0896C128.683 13.2261 129.211 13.4518 129.689 13.7667C130.166 14.0764 130.549 14.499 130.838 15.0344C131.132 15.5698 131.279 16.2391 131.279 17.0422V25.1365H128.539V23.4751H128.444C128.271 23.811 128.027 24.126 127.712 24.4199C127.402 24.7087 127.011 24.9422 126.539 25.1207C126.072 25.2939 125.523 25.3806 124.893 25.3806ZM125.634 23.2861C126.206 23.2861 126.702 23.1733 127.122 22.9475C127.542 22.7166 127.864 22.4121 128.09 22.0342C128.321 21.6562 128.437 21.2442 128.437 20.798V19.3729C128.347 19.4463 128.195 19.5146 127.98 19.5776C127.77 19.6406 127.534 19.6957 127.271 19.7429C127.009 19.7902 126.749 19.8322 126.492 19.8689C126.235 19.9056 126.011 19.9371 125.822 19.9634C125.397 20.0211 125.017 20.1156 124.681 20.2468C124.345 20.3781 124.08 20.5618 123.886 20.798C123.691 21.029 123.594 21.3282 123.594 21.6956C123.594 22.2205 123.786 22.6169 124.169 22.8846C124.552 23.1523 125.04 23.2861 125.634 23.2861Z" fill="white"/>
<path d="M140.184 13.0423V15.247H133.232V13.0423H140.184ZM134.948 10.1448H137.799V21.4988C137.799 21.882 137.856 22.1759 137.972 22.3806C138.092 22.5801 138.25 22.7166 138.444 22.7901C138.638 22.8636 138.854 22.9003 139.09 22.9003C139.268 22.9003 139.431 22.8872 139.578 22.8609C139.73 22.8347 139.846 22.8111 139.924 22.7901L140.405 25.0184C140.252 25.0708 140.035 25.1286 139.751 25.1916C139.473 25.2546 139.132 25.2913 138.728 25.3018C138.014 25.3228 137.371 25.2152 136.799 24.979C136.226 24.7375 135.772 24.3648 135.436 23.8609C135.106 23.357 134.943 22.7271 134.948 21.9712V10.1448Z" fill="white"/>
<path d="M147.792 25.3727C146.58 25.3727 145.533 25.1207 144.651 24.6168C143.774 24.1076 143.1 23.3885 142.627 22.4594C142.155 21.525 141.918 20.4253 141.918 19.1603C141.918 17.9162 142.155 16.8244 142.627 15.8848C143.105 14.9399 143.771 14.205 144.627 13.6801C145.483 13.1499 146.488 12.8849 147.643 12.8849C148.388 12.8849 149.091 13.0056 149.753 13.247C150.42 13.4833 151.007 13.8507 151.517 14.3494C152.031 14.8481 152.435 15.4832 152.729 16.2548C153.023 17.0212 153.17 17.9346 153.17 18.9949V19.8689H143.257V17.9477H150.438C150.433 17.4018 150.315 16.9162 150.084 16.491C149.853 16.0606 149.53 15.722 149.115 15.4753C148.706 15.2286 148.228 15.1053 147.682 15.1053C147.099 15.1053 146.588 15.247 146.147 15.5304C145.706 15.8087 145.362 16.1761 145.115 16.6328C144.874 17.0842 144.75 17.5803 144.745 18.1209V19.798C144.745 20.5014 144.874 21.1051 145.131 21.609C145.388 22.1077 145.748 22.4909 146.21 22.7586C146.672 23.021 147.212 23.1523 147.832 23.1523C148.246 23.1523 148.622 23.0945 148.958 22.979C149.294 22.8583 149.585 22.6825 149.832 22.4515C150.078 22.2205 150.265 21.9345 150.391 21.5933L153.052 21.8925C152.884 22.5959 152.564 23.21 152.091 23.7349C151.624 24.2546 151.026 24.6588 150.296 24.9475C149.567 25.2309 148.732 25.3727 147.792 25.3727Z" fill="white"/>
<defs>
<linearGradient id="paint0_linear_5004_6941" x1="0" y1="0" x2="35.429" y2="35.429" gradientUnits="userSpaceOnUse">
<stop stop-color="#11CCA8"/>
<stop offset="1" stop-color="#4AC5DF"/>
</linearGradient>
<linearGradient id="paint1_linear_5004_6941" x1="4.75548" y1="4.75586" x2="30.6716" y2="30.672" gradientUnits="userSpaceOnUse">
<stop stop-color="#11CCA8"/>
<stop offset="1" stop-color="#4AC5DF"/>
</linearGradient>
<linearGradient id="paint2_linear_5004_6941" x1="10.3635" y1="10.3623" x2="25.0683" y2="25.067" gradientUnits="userSpaceOnUse">
<stop stop-color="#11CCA8"/>
<stop offset="1" stop-color="#4AC5DF"/>
</linearGradient>
</defs>
</svg>
