<svg xmlns="http://www.w3.org/2000/svg" xmlns:xlink="http://www.w3.org/1999/xlink" width="500" zoomAndPan="magnify" viewBox="0 0 375 374.999991" height="500" preserveAspectRatio="xMidYMid meet" version="1.0"><defs><g/><clipPath id="064bd2c2ec"><path d="M 87.304688 158.699219 L 126 158.699219 L 126 196.949219 L 87.304688 196.949219 Z M 87.304688 158.699219 " clip-rule="nonzero"/></clipPath><clipPath id="8aea039622"><path d="M 125.472656 177.523438 C 125.472656 178.140625 125.441406 178.753906 125.382812 179.367188 C 125.320312 179.980469 125.230469 180.589844 125.109375 181.195312 C 124.988281 181.800781 124.839844 182.398438 124.660156 182.988281 C 124.480469 183.578125 124.273438 184.15625 124.035156 184.726562 C 123.796875 185.296875 123.535156 185.851562 123.242188 186.394531 C 122.949219 186.941406 122.632812 187.46875 122.289062 187.980469 C 121.945312 188.492188 121.578125 188.988281 121.183594 189.464844 C 120.792969 189.941406 120.378906 190.398438 119.941406 190.832031 C 119.503906 191.269531 119.042969 191.683594 118.566406 192.074219 C 118.089844 192.464844 117.589844 192.832031 117.078125 193.171875 C 116.5625 193.515625 116.03125 193.832031 115.488281 194.121094 C 114.941406 194.414062 114.382812 194.675781 113.8125 194.914062 C 113.238281 195.148438 112.65625 195.355469 112.066406 195.535156 C 111.472656 195.714844 110.875 195.863281 110.265625 195.984375 C 109.660156 196.105469 109.050781 196.195312 108.433594 196.253906 C 107.816406 196.316406 107.199219 196.34375 106.582031 196.34375 C 105.964844 196.34375 105.347656 196.316406 104.730469 196.253906 C 104.113281 196.195312 103.503906 196.105469 102.894531 195.984375 C 102.289062 195.863281 101.691406 195.714844 101.097656 195.535156 C 100.507812 195.355469 99.925781 195.148438 99.351562 194.914062 C 98.78125 194.675781 98.222656 194.414062 97.675781 194.121094 C 97.132812 193.832031 96.601562 193.515625 96.085938 193.171875 C 95.570312 192.832031 95.074219 192.464844 94.597656 192.074219 C 94.121094 191.683594 93.660156 191.269531 93.222656 190.832031 C 92.785156 190.398438 92.371094 189.941406 91.980469 189.464844 C 91.585938 188.988281 91.21875 188.492188 90.875 187.980469 C 90.53125 187.46875 90.214844 186.941406 89.921875 186.394531 C 89.628906 185.851562 89.367188 185.296875 89.128906 184.726562 C 88.890625 184.15625 88.683594 183.578125 88.503906 182.988281 C 88.324219 182.398438 88.175781 181.800781 88.054688 181.195312 C 87.933594 180.589844 87.84375 179.980469 87.78125 179.367188 C 87.722656 178.753906 87.691406 178.140625 87.691406 177.523438 C 87.691406 176.90625 87.722656 176.292969 87.78125 175.679688 C 87.84375 175.066406 87.933594 174.457031 88.054688 173.851562 C 88.175781 173.246094 88.324219 172.648438 88.503906 172.058594 C 88.683594 171.46875 88.890625 170.890625 89.128906 170.320312 C 89.367188 169.75 89.628906 169.195312 89.921875 168.648438 C 90.214844 168.105469 90.53125 167.578125 90.875 167.066406 C 91.21875 166.554688 91.585938 166.058594 91.980469 165.582031 C 92.371094 165.105469 92.785156 164.648438 93.222656 164.214844 C 93.660156 163.777344 94.121094 163.363281 94.597656 162.972656 C 95.074219 162.582031 95.570312 162.214844 96.085938 161.871094 C 96.601562 161.53125 97.132812 161.214844 97.675781 160.921875 C 98.222656 160.632812 98.78125 160.371094 99.351562 160.132812 C 99.925781 159.898438 100.507812 159.691406 101.097656 159.511719 C 101.691406 159.332031 102.289062 159.183594 102.894531 159.0625 C 103.503906 158.941406 104.113281 158.851562 104.730469 158.792969 C 105.347656 158.730469 105.964844 158.699219 106.582031 158.699219 C 107.199219 158.699219 107.816406 158.730469 108.433594 158.792969 C 109.050781 158.851562 109.660156 158.941406 110.265625 159.0625 C 110.875 159.183594 111.472656 159.332031 112.066406 159.511719 C 112.65625 159.691406 113.238281 159.898438 113.8125 160.132812 C 114.382812 160.371094 114.941406 160.632812 115.488281 160.921875 C 116.03125 161.214844 116.5625 161.53125 117.078125 161.871094 C 117.589844 162.214844 118.089844 162.582031 118.566406 162.972656 C 119.042969 163.363281 119.503906 163.777344 119.941406 164.214844 C 120.378906 164.648438 120.792969 165.105469 121.183594 165.582031 C 121.578125 166.058594 121.945312 166.554688 122.289062 167.066406 C 122.632812 167.578125 122.949219 168.105469 123.242188 168.648438 C 123.535156 169.195312 123.796875 169.75 124.035156 170.320312 C 124.273438 170.890625 124.480469 171.46875 124.660156 172.058594 C 124.839844 172.648438 124.988281 173.246094 125.109375 173.851562 C 125.230469 174.457031 125.320312 175.066406 125.382812 175.679688 C 125.441406 176.292969 125.472656 176.90625 125.472656 177.523438 Z M 125.472656 177.523438 " clip-rule="nonzero"/></clipPath><linearGradient x1="0.00000232594" gradientTransform="matrix(1.06639, 0, 0, 1.0625, 87.690836, 158.700906)" y1="0.00000232594" x2="35.430005" gradientUnits="userSpaceOnUse" y2="35.430005" id="816e233563"><stop stop-opacity="1" stop-color="rgb(6.698608%, 79.998779%, 65.899658%)" offset="0"/><stop stop-opacity="1" stop-color="rgb(6.872559%, 79.977417%, 66.067505%)" offset="0.015625"/><stop stop-opacity="1" stop-color="rgb(7.221985%, 79.936218%, 66.404724%)" offset="0.03125"/><stop stop-opacity="1" stop-color="rgb(7.569885%, 79.893494%, 66.741943%)" offset="0.046875"/><stop stop-opacity="1" stop-color="rgb(7.917786%, 79.850769%, 67.079163%)" offset="0.0625"/><stop stop-opacity="1" stop-color="rgb(8.267212%, 79.80957%, 67.417908%)" offset="0.078125"/><stop stop-opacity="1" stop-color="rgb(8.615112%, 79.766846%, 67.755127%)" offset="0.09375"/><stop stop-opacity="1" stop-color="rgb(8.964539%, 79.724121%, 68.092346%)" offset="0.109375"/><stop stop-opacity="1" stop-color="rgb(9.312439%, 79.682922%, 68.429565%)" offset="0.125"/><stop stop-opacity="1" stop-color="rgb(9.660339%, 79.640198%, 68.766785%)" offset="0.140625"/><stop stop-opacity="1" stop-color="rgb(10.009766%, 79.597473%, 69.10553%)" offset="0.15625"/><stop stop-opacity="1" stop-color="rgb(10.357666%, 79.556274%, 69.442749%)" offset="0.171875"/><stop stop-opacity="1" stop-color="rgb(10.705566%, 79.51355%, 69.779968%)" offset="0.1875"/><stop stop-opacity="1" stop-color="rgb(11.054993%, 79.472351%, 70.117188%)" offset="0.203125"/><stop stop-opacity="1" stop-color="rgb(11.402893%, 79.429626%, 70.454407%)" offset="0.21875"/><stop stop-opacity="1" stop-color="rgb(11.750793%, 79.386902%, 70.793152%)" offset="0.234375"/><stop stop-opacity="1" stop-color="rgb(12.10022%, 79.345703%, 71.130371%)" offset="0.25"/><stop stop-opacity="1" stop-color="rgb(12.44812%, 79.302979%, 71.46759%)" offset="0.265625"/><stop stop-opacity="1" stop-color="rgb(12.797546%, 79.260254%, 71.80481%)" offset="0.28125"/><stop stop-opacity="1" stop-color="rgb(13.145447%, 79.219055%, 72.142029%)" offset="0.296875"/><stop stop-opacity="1" stop-color="rgb(13.493347%, 79.176331%, 72.480774%)" offset="0.3125"/><stop stop-opacity="1" stop-color="rgb(13.842773%, 79.133606%, 72.817993%)" offset="0.328125"/><stop stop-opacity="1" stop-color="rgb(14.190674%, 79.092407%, 73.155212%)" offset="0.34375"/><stop stop-opacity="1" stop-color="rgb(14.538574%, 79.049683%, 73.492432%)" offset="0.359375"/><stop stop-opacity="1" stop-color="rgb(14.888%, 79.006958%, 73.829651%)" offset="0.375"/><stop stop-opacity="1" stop-color="rgb(15.235901%, 78.965759%, 74.16687%)" offset="0.390625"/><stop stop-opacity="1" stop-color="rgb(15.583801%, 78.923035%, 74.505615%)" offset="0.40625"/><stop stop-opacity="1" stop-color="rgb(15.933228%, 78.88031%, 74.842834%)" offset="0.421875"/><stop stop-opacity="1" stop-color="rgb(16.281128%, 78.839111%, 75.180054%)" offset="0.4375"/><stop stop-opacity="1" stop-color="rgb(16.629028%, 78.796387%, 75.517273%)" offset="0.453125"/><stop stop-opacity="1" stop-color="rgb(16.978455%, 78.753662%, 75.854492%)" offset="0.46875"/><stop stop-opacity="1" stop-color="rgb(17.326355%, 78.712463%, 76.193237%)" offset="0.484375"/><stop stop-opacity="1" stop-color="rgb(17.675781%, 78.669739%, 76.530457%)" offset="0.5"/><stop stop-opacity="1" stop-color="rgb(17.849731%, 78.649902%, 76.699829%)" offset="0.5"/><stop stop-opacity="1" stop-color="rgb(18.023682%, 78.62854%, 76.867676%)" offset="0.5"/><stop stop-opacity="1" stop-color="rgb(18.197632%, 78.607178%, 77.037048%)" offset="0.515625"/><stop stop-opacity="1" stop-color="rgb(18.371582%, 78.585815%, 77.204895%)" offset="0.53125"/><stop stop-opacity="1" stop-color="rgb(18.721008%, 78.543091%, 77.542114%)" offset="0.546875"/><stop stop-opacity="1" stop-color="rgb(19.068909%, 78.501892%, 77.880859%)" offset="0.5625"/><stop stop-opacity="1" stop-color="rgb(19.416809%, 78.459167%, 78.218079%)" offset="0.578125"/><stop stop-opacity="1" stop-color="rgb(19.766235%, 78.416443%, 78.555298%)" offset="0.59375"/><stop stop-opacity="1" stop-color="rgb(20.114136%, 78.375244%, 78.892517%)" offset="0.609375"/><stop stop-opacity="1" stop-color="rgb(20.462036%, 78.33252%, 79.229736%)" offset="0.625"/><stop stop-opacity="1" stop-color="rgb(20.811462%, 78.289795%, 79.568481%)" offset="0.640625"/><stop stop-opacity="1" stop-color="rgb(21.159363%, 78.248596%, 79.905701%)" offset="0.65625"/><stop stop-opacity="1" stop-color="rgb(21.507263%, 78.205872%, 80.24292%)" offset="0.671875"/><stop stop-opacity="1" stop-color="rgb(21.856689%, 78.163147%, 80.580139%)" offset="0.6875"/><stop stop-opacity="1" stop-color="rgb(22.20459%, 78.121948%, 80.917358%)" offset="0.703125"/><stop stop-opacity="1" stop-color="rgb(22.554016%, 78.079224%, 81.254578%)" offset="0.71875"/><stop stop-opacity="1" stop-color="rgb(22.901917%, 78.036499%, 81.593323%)" offset="0.734375"/><stop stop-opacity="1" stop-color="rgb(23.249817%, 77.9953%, 81.930542%)" offset="0.75"/><stop stop-opacity="1" stop-color="rgb(23.599243%, 77.952576%, 82.267761%)" offset="0.765625"/><stop stop-opacity="1" stop-color="rgb(23.947144%, 77.911377%, 82.60498%)" offset="0.78125"/><stop stop-opacity="1" stop-color="rgb(24.295044%, 77.868652%, 82.9422%)" offset="0.796875"/><stop stop-opacity="1" stop-color="rgb(24.64447%, 77.825928%, 83.280945%)" offset="0.8125"/><stop stop-opacity="1" stop-color="rgb(24.992371%, 77.784729%, 83.618164%)" offset="0.828125"/><stop stop-opacity="1" stop-color="rgb(25.340271%, 77.742004%, 83.955383%)" offset="0.84375"/><stop stop-opacity="1" stop-color="rgb(25.689697%, 77.69928%, 84.292603%)" offset="0.859375"/><stop stop-opacity="1" stop-color="rgb(26.037598%, 77.658081%, 84.629822%)" offset="0.875"/><stop stop-opacity="1" stop-color="rgb(26.385498%, 77.615356%, 84.968567%)" offset="0.890625"/><stop stop-opacity="1" stop-color="rgb(26.734924%, 77.572632%, 85.305786%)" offset="0.90625"/><stop stop-opacity="1" stop-color="rgb(27.082825%, 77.531433%, 85.643005%)" offset="0.921875"/><stop stop-opacity="1" stop-color="rgb(27.432251%, 77.488708%, 85.980225%)" offset="0.9375"/><stop stop-opacity="1" stop-color="rgb(27.780151%, 77.445984%, 86.317444%)" offset="0.953125"/><stop stop-opacity="1" stop-color="rgb(28.128052%, 77.404785%, 86.656189%)" offset="0.96875"/><stop stop-opacity="1" stop-color="rgb(28.477478%, 77.362061%, 86.993408%)" offset="0.984375"/><stop stop-opacity="1" stop-color="rgb(28.825378%, 77.319336%, 87.330627%)" offset="1"/></linearGradient><clipPath id="f60742d764"><path d="M 92 163 L 121 163 L 121 192 L 92 192 Z M 92 163 " clip-rule="nonzero"/></clipPath><clipPath id="21653cb239"><path d="M 120.398438 177.523438 C 120.398438 178.425781 120.308594 179.320312 120.132812 180.207031 C 119.957031 181.09375 119.695312 181.957031 119.347656 182.789062 C 119 183.625 118.574219 184.417969 118.070312 185.171875 C 117.566406 185.921875 116.992188 186.617188 116.351562 187.257812 C 115.710938 187.898438 115.011719 188.46875 114.257812 188.96875 C 113.503906 189.472656 112.707031 189.894531 111.867188 190.242188 C 111.03125 190.585938 110.164062 190.847656 109.277344 191.023438 C 108.386719 191.203125 107.488281 191.289062 106.578125 191.289062 C 105.671875 191.289062 104.773438 191.203125 103.882812 191.023438 C 102.992188 190.847656 102.128906 190.585938 101.292969 190.242188 C 100.453125 189.894531 99.65625 189.472656 98.902344 188.96875 C 98.148438 188.46875 97.449219 187.898438 96.808594 187.257812 C 96.167969 186.617188 95.59375 185.921875 95.089844 185.171875 C 94.585938 184.417969 94.160156 183.625 93.8125 182.789062 C 93.464844 181.957031 93.203125 181.09375 93.027344 180.207031 C 92.851562 179.320312 92.761719 178.425781 92.761719 177.523438 C 92.761719 176.617188 92.851562 175.722656 93.027344 174.835938 C 93.203125 173.949219 93.464844 173.089844 93.8125 172.253906 C 94.160156 171.417969 94.585938 170.625 95.089844 169.871094 C 95.59375 169.121094 96.167969 168.425781 96.808594 167.785156 C 97.449219 167.148438 98.148438 166.578125 98.902344 166.074219 C 99.65625 165.570312 100.453125 165.148438 101.292969 164.800781 C 102.128906 164.457031 102.992188 164.195312 103.882812 164.019531 C 104.773438 163.84375 105.671875 163.753906 106.578125 163.753906 C 107.488281 163.753906 108.386719 163.84375 109.277344 164.019531 C 110.164062 164.195312 111.03125 164.457031 111.867188 164.800781 C 112.707031 165.148438 113.503906 165.570312 114.257812 166.074219 C 115.011719 166.578125 115.710938 167.148438 116.351562 167.785156 C 116.992188 168.425781 117.566406 169.121094 118.070312 169.871094 C 118.574219 170.625 119 171.417969 119.347656 172.253906 C 119.695312 173.089844 119.957031 173.949219 120.132812 174.835938 C 120.308594 175.722656 120.398438 176.617188 120.398438 177.523438 Z M 120.398438 177.523438 " clip-rule="nonzero"/></clipPath><linearGradient x1="4.755002" gradientTransform="matrix(1.06639, 0, 0, 1.0625, 87.690836, 158.700906)" y1="4.756002" x2="30.671503" gradientUnits="userSpaceOnUse" y2="30.671503" id="71e760b701"><stop stop-opacity="1" stop-color="rgb(6.698608%, 79.998779%, 65.899658%)" offset="0"/><stop stop-opacity="1" stop-color="rgb(6.872559%, 79.977417%, 66.067505%)" offset="0.015625"/><stop stop-opacity="1" stop-color="rgb(7.221985%, 79.936218%, 66.404724%)" offset="0.03125"/><stop stop-opacity="1" stop-color="rgb(7.569885%, 79.893494%, 66.741943%)" offset="0.046875"/><stop stop-opacity="1" stop-color="rgb(7.917786%, 79.850769%, 67.079163%)" offset="0.0625"/><stop stop-opacity="1" stop-color="rgb(8.267212%, 79.80957%, 67.417908%)" offset="0.078125"/><stop stop-opacity="1" stop-color="rgb(8.615112%, 79.766846%, 67.755127%)" offset="0.09375"/><stop stop-opacity="1" stop-color="rgb(8.963013%, 79.724121%, 68.092346%)" offset="0.109375"/><stop stop-opacity="1" stop-color="rgb(9.312439%, 79.682922%, 68.429565%)" offset="0.125"/><stop stop-opacity="1" stop-color="rgb(9.660339%, 79.640198%, 68.766785%)" offset="0.140625"/><stop stop-opacity="1" stop-color="rgb(10.009766%, 79.597473%, 69.10553%)" offset="0.15625"/><stop stop-opacity="1" stop-color="rgb(10.357666%, 79.556274%, 69.442749%)" offset="0.171875"/><stop stop-opacity="1" stop-color="rgb(10.705566%, 79.51355%, 69.779968%)" offset="0.1875"/><stop stop-opacity="1" stop-color="rgb(11.054993%, 79.472351%, 70.117188%)" offset="0.203125"/><stop stop-opacity="1" stop-color="rgb(11.402893%, 79.429626%, 70.454407%)" offset="0.21875"/><stop stop-opacity="1" stop-color="rgb(11.750793%, 79.386902%, 70.791626%)" offset="0.234375"/><stop stop-opacity="1" stop-color="rgb(12.10022%, 79.345703%, 71.130371%)" offset="0.25"/><stop stop-opacity="1" stop-color="rgb(12.44812%, 79.302979%, 71.46759%)" offset="0.265625"/><stop stop-opacity="1" stop-color="rgb(12.796021%, 79.260254%, 71.80481%)" offset="0.28125"/><stop stop-opacity="1" stop-color="rgb(13.145447%, 79.219055%, 72.142029%)" offset="0.296875"/><stop stop-opacity="1" stop-color="rgb(13.493347%, 79.176331%, 72.479248%)" offset="0.3125"/><stop stop-opacity="1" stop-color="rgb(13.841248%, 79.133606%, 72.816467%)" offset="0.328125"/><stop stop-opacity="1" stop-color="rgb(14.190674%, 79.092407%, 73.155212%)" offset="0.34375"/><stop stop-opacity="1" stop-color="rgb(14.538574%, 79.049683%, 73.492432%)" offset="0.359375"/><stop stop-opacity="1" stop-color="rgb(14.886475%, 79.006958%, 73.829651%)" offset="0.375"/><stop stop-opacity="1" stop-color="rgb(15.235901%, 78.965759%, 74.16687%)" offset="0.390625"/><stop stop-opacity="1" stop-color="rgb(15.583801%, 78.923035%, 74.504089%)" offset="0.40625"/><stop stop-opacity="1" stop-color="rgb(15.931702%, 78.88031%, 74.842834%)" offset="0.421875"/><stop stop-opacity="1" stop-color="rgb(16.281128%, 78.839111%, 75.180054%)" offset="0.4375"/><stop stop-opacity="1" stop-color="rgb(16.629028%, 78.796387%, 75.517273%)" offset="0.453125"/><stop stop-opacity="1" stop-color="rgb(16.976929%, 78.755188%, 75.854492%)" offset="0.46875"/><stop stop-opacity="1" stop-color="rgb(17.326355%, 78.712463%, 76.191711%)" offset="0.484375"/><stop stop-opacity="1" stop-color="rgb(17.674255%, 78.669739%, 76.528931%)" offset="0.49999"/><stop stop-opacity="1" stop-color="rgb(17.849731%, 78.649902%, 76.698303%)" offset="0.5"/><stop stop-opacity="1" stop-color="rgb(18.023682%, 78.62854%, 76.867676%)" offset="0.50001"/><stop stop-opacity="1" stop-color="rgb(18.197632%, 78.607178%, 77.037048%)" offset="0.515625"/><stop stop-opacity="1" stop-color="rgb(18.371582%, 78.585815%, 77.204895%)" offset="0.53125"/><stop stop-opacity="1" stop-color="rgb(18.719482%, 78.543091%, 77.542114%)" offset="0.546875"/><stop stop-opacity="1" stop-color="rgb(19.068909%, 78.501892%, 77.879333%)" offset="0.5625"/><stop stop-opacity="1" stop-color="rgb(19.416809%, 78.459167%, 78.216553%)" offset="0.578125"/><stop stop-opacity="1" stop-color="rgb(19.764709%, 78.416443%, 78.555298%)" offset="0.59375"/><stop stop-opacity="1" stop-color="rgb(20.114136%, 78.375244%, 78.892517%)" offset="0.609375"/><stop stop-opacity="1" stop-color="rgb(20.462036%, 78.33252%, 79.229736%)" offset="0.625"/><stop stop-opacity="1" stop-color="rgb(20.809937%, 78.289795%, 79.566956%)" offset="0.640625"/><stop stop-opacity="1" stop-color="rgb(21.159363%, 78.248596%, 79.904175%)" offset="0.65625"/><stop stop-opacity="1" stop-color="rgb(21.507263%, 78.205872%, 80.241394%)" offset="0.671875"/><stop stop-opacity="1" stop-color="rgb(21.855164%, 78.163147%, 80.580139%)" offset="0.6875"/><stop stop-opacity="1" stop-color="rgb(22.20459%, 78.121948%, 80.917358%)" offset="0.703125"/><stop stop-opacity="1" stop-color="rgb(22.55249%, 78.079224%, 81.254578%)" offset="0.71875"/><stop stop-opacity="1" stop-color="rgb(22.900391%, 78.038025%, 81.591797%)" offset="0.734375"/><stop stop-opacity="1" stop-color="rgb(23.249817%, 77.9953%, 81.929016%)" offset="0.75"/><stop stop-opacity="1" stop-color="rgb(23.597717%, 77.952576%, 82.267761%)" offset="0.765625"/><stop stop-opacity="1" stop-color="rgb(23.945618%, 77.911377%, 82.60498%)" offset="0.78125"/><stop stop-opacity="1" stop-color="rgb(24.295044%, 77.868652%, 82.9422%)" offset="0.796875"/><stop stop-opacity="1" stop-color="rgb(24.642944%, 77.825928%, 83.279419%)" offset="0.8125"/><stop stop-opacity="1" stop-color="rgb(24.990845%, 77.784729%, 83.616638%)" offset="0.828125"/><stop stop-opacity="1" stop-color="rgb(25.340271%, 77.742004%, 83.953857%)" offset="0.84375"/><stop stop-opacity="1" stop-color="rgb(25.688171%, 77.69928%, 84.292603%)" offset="0.859375"/><stop stop-opacity="1" stop-color="rgb(26.037598%, 77.658081%, 84.629822%)" offset="0.875"/><stop stop-opacity="1" stop-color="rgb(26.385498%, 77.615356%, 84.967041%)" offset="0.890625"/><stop stop-opacity="1" stop-color="rgb(26.733398%, 77.572632%, 85.30426%)" offset="0.90625"/><stop stop-opacity="1" stop-color="rgb(27.082825%, 77.531433%, 85.641479%)" offset="0.921875"/><stop stop-opacity="1" stop-color="rgb(27.430725%, 77.488708%, 85.980225%)" offset="0.9375"/><stop stop-opacity="1" stop-color="rgb(27.778625%, 77.445984%, 86.317444%)" offset="0.953125"/><stop stop-opacity="1" stop-color="rgb(28.128052%, 77.404785%, 86.654663%)" offset="0.96875"/><stop stop-opacity="1" stop-color="rgb(28.475952%, 77.362061%, 86.991882%)" offset="0.984375"/><stop stop-opacity="1" stop-color="rgb(28.823853%, 77.320862%, 87.329102%)" offset="1"/></linearGradient><clipPath id="186108d311"><path d="M 98 169 L 115 169 L 115 186 L 98 186 Z M 98 169 " clip-rule="nonzero"/></clipPath><clipPath id="143e58c04d"><path d="M 114.421875 177.523438 C 114.421875 178.035156 114.371094 178.542969 114.273438 179.046875 C 114.171875 179.550781 114.023438 180.039062 113.828125 180.511719 C 113.628906 180.984375 113.386719 181.4375 113.101562 181.863281 C 112.816406 182.289062 112.492188 182.683594 112.125 183.046875 C 111.761719 183.410156 111.367188 183.734375 110.9375 184.019531 C 110.511719 184.304688 110.058594 184.542969 109.582031 184.738281 C 109.109375 184.9375 108.617188 185.085938 108.113281 185.183594 C 107.609375 185.285156 107.097656 185.335938 106.582031 185.335938 C 106.066406 185.335938 105.558594 185.285156 105.054688 185.183594 C 104.546875 185.085938 104.058594 184.9375 103.582031 184.738281 C 103.105469 184.542969 102.65625 184.304688 102.226562 184.019531 C 101.800781 183.734375 101.402344 183.410156 101.039062 183.046875 C 100.675781 182.683594 100.351562 182.289062 100.0625 181.863281 C 99.777344 181.4375 99.535156 180.984375 99.339844 180.511719 C 99.144531 180.039062 98.992188 179.550781 98.894531 179.046875 C 98.792969 178.542969 98.742188 178.035156 98.742188 177.523438 C 98.742188 177.011719 98.792969 176.503906 98.894531 176 C 98.992188 175.496094 99.144531 175.007812 99.339844 174.535156 C 99.535156 174.058594 99.777344 173.609375 100.0625 173.183594 C 100.351562 172.757812 100.675781 172.363281 101.039062 172 C 101.402344 171.636719 101.800781 171.3125 102.226562 171.027344 C 102.65625 170.742188 103.105469 170.503906 103.582031 170.304688 C 104.058594 170.109375 104.546875 169.960938 105.054688 169.863281 C 105.558594 169.761719 106.066406 169.710938 106.582031 169.710938 C 107.097656 169.710938 107.609375 169.761719 108.113281 169.863281 C 108.617188 169.960938 109.109375 170.109375 109.582031 170.304688 C 110.058594 170.503906 110.511719 170.742188 110.9375 171.027344 C 111.367188 171.3125 111.761719 171.636719 112.125 172 C 112.492188 172.363281 112.816406 172.757812 113.101562 173.183594 C 113.386719 173.609375 113.628906 174.058594 113.828125 174.535156 C 114.023438 175.007812 114.171875 175.496094 114.273438 176 C 114.371094 176.503906 114.421875 177.011719 114.421875 177.523438 Z M 114.421875 177.523438 " clip-rule="nonzero"/></clipPath><linearGradient x1="10.364502" gradientTransform="matrix(1.06639, 0, 0, 1.0625, 87.690836, 158.700906)" y1="10.362502" x2="25.068005" gradientUnits="userSpaceOnUse" y2="25.067003" id="5fba61feb6"><stop stop-opacity="1" stop-color="rgb(6.700134%, 79.998779%, 65.899658%)" offset="0"/><stop stop-opacity="1" stop-color="rgb(6.874084%, 79.977417%, 66.067505%)" offset="0.015625"/><stop stop-opacity="1" stop-color="rgb(7.221985%, 79.936218%, 66.40625%)" offset="0.03125"/><stop stop-opacity="1" stop-color="rgb(7.571411%, 79.893494%, 66.743469%)" offset="0.046875"/><stop stop-opacity="1" stop-color="rgb(7.919312%, 79.850769%, 67.080688%)" offset="0.0625"/><stop stop-opacity="1" stop-color="rgb(8.267212%, 79.80957%, 67.417908%)" offset="0.078125"/><stop stop-opacity="1" stop-color="rgb(8.616638%, 79.766846%, 67.755127%)" offset="0.09375"/><stop stop-opacity="1" stop-color="rgb(8.964539%, 79.724121%, 68.092346%)" offset="0.109375"/><stop stop-opacity="1" stop-color="rgb(9.312439%, 79.682922%, 68.431091%)" offset="0.125"/><stop stop-opacity="1" stop-color="rgb(9.661865%, 79.640198%, 68.768311%)" offset="0.140625"/><stop stop-opacity="1" stop-color="rgb(10.009766%, 79.597473%, 69.10553%)" offset="0.15625"/><stop stop-opacity="1" stop-color="rgb(10.357666%, 79.556274%, 69.442749%)" offset="0.171875"/><stop stop-opacity="1" stop-color="rgb(10.707092%, 79.51355%, 69.779968%)" offset="0.1875"/><stop stop-opacity="1" stop-color="rgb(11.054993%, 79.470825%, 70.118713%)" offset="0.203125"/><stop stop-opacity="1" stop-color="rgb(11.402893%, 79.429626%, 70.455933%)" offset="0.21875"/><stop stop-opacity="1" stop-color="rgb(11.752319%, 79.386902%, 70.793152%)" offset="0.234375"/><stop stop-opacity="1" stop-color="rgb(12.10022%, 79.345703%, 71.130371%)" offset="0.25"/><stop stop-opacity="1" stop-color="rgb(12.44812%, 79.302979%, 71.46759%)" offset="0.265625"/><stop stop-opacity="1" stop-color="rgb(12.797546%, 79.260254%, 71.80481%)" offset="0.28125"/><stop stop-opacity="1" stop-color="rgb(13.145447%, 79.219055%, 72.143555%)" offset="0.296875"/><stop stop-opacity="1" stop-color="rgb(13.493347%, 79.176331%, 72.480774%)" offset="0.3125"/><stop stop-opacity="1" stop-color="rgb(13.842773%, 79.133606%, 72.817993%)" offset="0.328125"/><stop stop-opacity="1" stop-color="rgb(14.190674%, 79.092407%, 73.155212%)" offset="0.34375"/><stop stop-opacity="1" stop-color="rgb(14.538574%, 79.049683%, 73.492432%)" offset="0.359375"/><stop stop-opacity="1" stop-color="rgb(14.888%, 79.006958%, 73.829651%)" offset="0.375"/><stop stop-opacity="1" stop-color="rgb(15.235901%, 78.965759%, 74.168396%)" offset="0.390625"/><stop stop-opacity="1" stop-color="rgb(15.585327%, 78.923035%, 74.505615%)" offset="0.40625"/><stop stop-opacity="1" stop-color="rgb(15.933228%, 78.88031%, 74.842834%)" offset="0.421875"/><stop stop-opacity="1" stop-color="rgb(16.281128%, 78.839111%, 75.180054%)" offset="0.4375"/><stop stop-opacity="1" stop-color="rgb(16.630554%, 78.796387%, 75.517273%)" offset="0.453125"/><stop stop-opacity="1" stop-color="rgb(16.978455%, 78.753662%, 75.856018%)" offset="0.46875"/><stop stop-opacity="1" stop-color="rgb(17.326355%, 78.712463%, 76.193237%)" offset="0.484375"/><stop stop-opacity="1" stop-color="rgb(17.675781%, 78.669739%, 76.530457%)" offset="0.499983"/><stop stop-opacity="1" stop-color="rgb(17.849731%, 78.649902%, 76.699829%)" offset="0.5"/><stop stop-opacity="1" stop-color="rgb(18.023682%, 78.62854%, 76.867676%)" offset="0.500017"/><stop stop-opacity="1" stop-color="rgb(18.197632%, 78.607178%, 77.037048%)" offset="0.515625"/><stop stop-opacity="1" stop-color="rgb(18.371582%, 78.585815%, 77.204895%)" offset="0.53125"/><stop stop-opacity="1" stop-color="rgb(18.721008%, 78.543091%, 77.542114%)" offset="0.546875"/><stop stop-opacity="1" stop-color="rgb(19.068909%, 78.501892%, 77.880859%)" offset="0.5625"/><stop stop-opacity="1" stop-color="rgb(19.416809%, 78.459167%, 78.218079%)" offset="0.578125"/><stop stop-opacity="1" stop-color="rgb(19.766235%, 78.416443%, 78.555298%)" offset="0.59375"/><stop stop-opacity="1" stop-color="rgb(20.114136%, 78.375244%, 78.892517%)" offset="0.609375"/><stop stop-opacity="1" stop-color="rgb(20.462036%, 78.33252%, 79.229736%)" offset="0.625"/><stop stop-opacity="1" stop-color="rgb(20.811462%, 78.289795%, 79.566956%)" offset="0.640625"/><stop stop-opacity="1" stop-color="rgb(21.159363%, 78.248596%, 79.905701%)" offset="0.65625"/><stop stop-opacity="1" stop-color="rgb(21.507263%, 78.205872%, 80.24292%)" offset="0.671875"/><stop stop-opacity="1" stop-color="rgb(21.856689%, 78.163147%, 80.580139%)" offset="0.6875"/><stop stop-opacity="1" stop-color="rgb(22.20459%, 78.121948%, 80.917358%)" offset="0.703125"/><stop stop-opacity="1" stop-color="rgb(22.55249%, 78.079224%, 81.254578%)" offset="0.71875"/><stop stop-opacity="1" stop-color="rgb(22.901917%, 78.036499%, 81.593323%)" offset="0.734375"/><stop stop-opacity="1" stop-color="rgb(23.249817%, 77.9953%, 81.930542%)" offset="0.75"/><stop stop-opacity="1" stop-color="rgb(23.597717%, 77.952576%, 82.267761%)" offset="0.765625"/><stop stop-opacity="1" stop-color="rgb(23.947144%, 77.911377%, 82.60498%)" offset="0.78125"/><stop stop-opacity="1" stop-color="rgb(24.295044%, 77.868652%, 82.9422%)" offset="0.796875"/><stop stop-opacity="1" stop-color="rgb(24.642944%, 77.825928%, 83.279419%)" offset="0.8125"/><stop stop-opacity="1" stop-color="rgb(24.992371%, 77.784729%, 83.618164%)" offset="0.828125"/><stop stop-opacity="1" stop-color="rgb(25.340271%, 77.742004%, 83.955383%)" offset="0.84375"/><stop stop-opacity="1" stop-color="rgb(25.689697%, 77.69928%, 84.292603%)" offset="0.859375"/><stop stop-opacity="1" stop-color="rgb(26.037598%, 77.658081%, 84.629822%)" offset="0.875"/><stop stop-opacity="1" stop-color="rgb(26.385498%, 77.615356%, 84.967041%)" offset="0.890625"/><stop stop-opacity="1" stop-color="rgb(26.734924%, 77.572632%, 85.30426%)" offset="0.90625"/><stop stop-opacity="1" stop-color="rgb(27.082825%, 77.531433%, 85.643005%)" offset="0.921875"/><stop stop-opacity="1" stop-color="rgb(27.430725%, 77.488708%, 85.980225%)" offset="0.9375"/><stop stop-opacity="1" stop-color="rgb(27.780151%, 77.445984%, 86.317444%)" offset="0.953125"/><stop stop-opacity="1" stop-color="rgb(28.128052%, 77.404785%, 86.654663%)" offset="0.96875"/><stop stop-opacity="1" stop-color="rgb(28.475952%, 77.362061%, 86.991882%)" offset="0.984375"/><stop stop-opacity="1" stop-color="rgb(28.825378%, 77.319336%, 87.330627%)" offset="1"/></linearGradient></defs><g clip-path="url(#064bd2c2ec)"><g clip-path="url(#8aea039622)"><path fill="url(#816e233563)" d="M 87.691406 158.699219 L 87.691406 196.34375 L 125.472656 196.34375 L 125.472656 158.699219 Z M 87.691406 158.699219 " fill-rule="nonzero"/></g></g><g clip-path="url(#f60742d764)"><g clip-path="url(#21653cb239)"><path fill="url(#71e760b701)" d="M 92.761719 163.753906 L 92.761719 191.289062 L 120.398438 191.289062 L 120.398438 163.753906 Z M 92.761719 163.753906 " fill-rule="nonzero"/></g></g><g clip-path="url(#186108d311)"><g clip-path="url(#143e58c04d)"><path fill="url(#5fba61feb6)" d="M 98.742188 169.710938 L 98.742188 185.335938 L 114.421875 185.335938 L 114.421875 169.710938 Z M 98.742188 169.710938 " fill-rule="nonzero"/></g></g><g fill="#ffffff" fill-opacity="1"><g transform="translate(133.304325, 189.826716)"><g><path d="M 14.25 0 L 8.53125 0 L 0.421875 -23.96875 L 5.453125 -23.96875 L 11.28125 -6.09375 L 11.6875 -6.09375 L 17.421875 -23.96875 L 22.328125 -23.96875 Z M 14.25 0 "/></g></g></g><g fill="#ffffff" fill-opacity="1"><g transform="translate(156.060933, 189.826716)"><g><path d="M 12.375 -23.96875 C 14.09375 -23.96875 15.5625 -23.648438 16.78125 -23.015625 C 18 -22.390625 18.921875 -21.507812 19.546875 -20.375 C 20.171875 -19.25 20.484375 -17.9375 20.484375 -16.4375 C 20.484375 -14.945312 20.171875 -13.640625 19.546875 -12.515625 C 18.921875 -11.390625 18 -10.507812 16.78125 -9.875 C 15.5625 -9.25 14.09375 -8.9375 12.375 -8.9375 L 7.859375 -8.9375 L 7.859375 0 L 3.109375 0 L 3.109375 -23.96875 Z M 11.75 -12.6875 C 14.382812 -12.6875 15.703125 -13.9375 15.703125 -16.4375 C 15.703125 -18.957031 14.382812 -20.21875 11.75 -20.21875 L 7.859375 -20.21875 L 7.859375 -12.6875 Z M 11.75 -12.6875 "/></g></g></g><g fill="#000000" fill-opacity="1"><g transform="translate(177.96935, 189.826716)"><g/></g></g><g fill="#ffffff" fill-opacity="1"><g transform="translate(185.889033, 189.826716)"><g><path d="M 11.734375 -23.96875 C 15.628906 -23.96875 18.597656 -22.960938 20.640625 -20.953125 C 22.691406 -18.941406 23.71875 -15.953125 23.71875 -11.984375 C 23.71875 -8.023438 22.691406 -5.035156 20.640625 -3.015625 C 18.597656 -1.003906 15.628906 0 11.734375 0 L 3.109375 0 L 3.109375 -23.96875 Z M 11.453125 -3.984375 C 13.929688 -3.984375 15.78125 -4.613281 17 -5.875 C 18.226562 -7.132812 18.84375 -9.171875 18.84375 -11.984375 C 18.84375 -14.796875 18.226562 -16.832031 17 -18.09375 C 15.78125 -19.351562 13.929688 -19.984375 11.453125 -19.984375 L 7.859375 -19.984375 L 7.859375 -3.984375 Z M 11.453125 -3.984375 "/></g></g></g><g fill="#ffffff" fill-opacity="1"><g transform="translate(211.514815, 189.826716)"><g><path d="M 4.875 -20.25 C 4.050781 -20.25 3.378906 -20.492188 2.859375 -20.984375 C 2.347656 -21.484375 2.09375 -22.128906 2.09375 -22.921875 C 2.09375 -23.691406 2.347656 -24.328125 2.859375 -24.828125 C 3.378906 -25.328125 4.050781 -25.578125 4.875 -25.578125 C 5.414062 -25.578125 5.898438 -25.460938 6.328125 -25.234375 C 6.753906 -25.003906 7.082031 -24.6875 7.3125 -24.28125 C 7.550781 -23.882812 7.671875 -23.429688 7.671875 -22.921875 C 7.671875 -22.410156 7.550781 -21.953125 7.3125 -21.546875 C 7.082031 -21.140625 6.753906 -20.820312 6.328125 -20.59375 C 5.898438 -20.363281 5.414062 -20.25 4.875 -20.25 Z M 2.609375 0 L 2.609375 -18.078125 L 7.15625 -18.078125 L 7.15625 0 Z M 2.609375 0 "/></g></g></g><g fill="#ffffff" fill-opacity="1"><g transform="translate(221.253594, 189.826716)"><g><path d="M 9.375 7.671875 C 6.394531 7.671875 4.191406 7.234375 2.765625 6.359375 C 1.347656 5.484375 0.640625 4.265625 0.640625 2.703125 C 0.640625 1.753906 0.941406 0.972656 1.546875 0.359375 C 2.148438 -0.242188 3.023438 -0.648438 4.171875 -0.859375 L 4.171875 -1.203125 C 3.554688 -1.566406 3.113281 -1.972656 2.84375 -2.421875 C 2.570312 -2.878906 2.4375 -3.410156 2.4375 -4.015625 C 2.4375 -5.472656 3.382812 -6.453125 5.28125 -6.953125 L 5.28125 -7.296875 C 4.300781 -7.847656 3.566406 -8.535156 3.078125 -9.359375 C 2.585938 -10.191406 2.34375 -11.191406 2.34375 -12.359375 C 2.34375 -13.566406 2.617188 -14.625 3.171875 -15.53125 C 3.722656 -16.445312 4.53125 -17.15625 5.59375 -17.65625 C 6.664062 -18.164062 7.941406 -18.421875 9.421875 -18.421875 C 10.929688 -18.421875 12.132812 -18.160156 13.03125 -17.640625 C 13.59375 -18.453125 13.914062 -19.382812 14 -20.4375 L 14.34375 -20.65625 L 17.609375 -19.859375 C 17.515625 -18.992188 17.265625 -18.269531 16.859375 -17.6875 C 16.453125 -17.101562 15.820312 -16.578125 14.96875 -16.109375 L 14.96875 -15.75 C 15.988281 -14.851562 16.5 -13.601562 16.5 -12 C 16.5 -10.882812 16.21875 -9.882812 15.65625 -9 C 15.101562 -8.113281 14.289062 -7.410156 13.21875 -6.890625 C 12.15625 -6.378906 10.890625 -6.125 9.421875 -6.125 L 8.734375 -6.140625 C 8.296875 -6.171875 7.992188 -6.1875 7.828125 -6.1875 C 7.410156 -6.1875 7.082031 -6.070312 6.84375 -5.84375 C 6.613281 -5.625 6.5 -5.335938 6.5 -4.984375 C 6.5 -4.597656 6.648438 -4.296875 6.953125 -4.078125 C 7.253906 -3.867188 7.703125 -3.753906 8.296875 -3.734375 L 12.34375 -3.59375 C 16.34375 -3.46875 18.34375 -1.742188 18.34375 1.578125 C 18.34375 2.742188 18.046875 3.78125 17.453125 4.6875 C 16.859375 5.601562 15.894531 6.328125 14.5625 6.859375 C 13.226562 7.398438 11.5 7.671875 9.375 7.671875 Z M 9.421875 -9.3125 C 10.296875 -9.3125 10.976562 -9.566406 11.46875 -10.078125 C 11.96875 -10.597656 12.21875 -11.332031 12.21875 -12.28125 C 12.21875 -13.226562 11.96875 -13.957031 11.46875 -14.46875 C 10.976562 -14.976562 10.296875 -15.234375 9.421875 -15.234375 C 8.535156 -15.234375 7.851562 -14.976562 7.375 -14.46875 C 6.894531 -13.957031 6.65625 -13.226562 6.65625 -12.28125 C 6.65625 -11.320312 6.894531 -10.585938 7.375 -10.078125 C 7.851562 -9.566406 8.535156 -9.3125 9.421875 -9.3125 Z M 9.375 4.375 C 10.925781 4.375 12.054688 4.15625 12.765625 3.71875 C 13.472656 3.28125 13.828125 2.710938 13.828125 2.015625 C 13.828125 1.453125 13.644531 1.035156 13.28125 0.765625 C 12.914062 0.492188 12.34375 0.347656 11.5625 0.328125 L 7.984375 0.15625 C 7.859375 0.15625 7.742188 0.148438 7.640625 0.140625 C 7.546875 0.128906 7.445312 0.125 7.34375 0.125 C 6.582031 0.125 6 0.285156 5.59375 0.609375 C 5.195312 0.941406 5 1.398438 5 1.984375 C 5 2.742188 5.363281 3.332031 6.09375 3.75 C 6.832031 4.164062 7.925781 4.375 9.375 4.375 Z M 9.375 4.375 "/></g></g></g><g fill="#ffffff" fill-opacity="1"><g transform="translate(240.058951, 189.826716)"><g><path d="M 4.875 -20.25 C 4.050781 -20.25 3.378906 -20.492188 2.859375 -20.984375 C 2.347656 -21.484375 2.09375 -22.128906 2.09375 -22.921875 C 2.09375 -23.691406 2.347656 -24.328125 2.859375 -24.828125 C 3.378906 -25.328125 4.050781 -25.578125 4.875 -25.578125 C 5.414062 -25.578125 5.898438 -25.460938 6.328125 -25.234375 C 6.753906 -25.003906 7.082031 -24.6875 7.3125 -24.28125 C 7.550781 -23.882812 7.671875 -23.429688 7.671875 -22.921875 C 7.671875 -22.410156 7.550781 -21.953125 7.3125 -21.546875 C 7.082031 -21.140625 6.753906 -20.820312 6.328125 -20.59375 C 5.898438 -20.363281 5.414062 -20.25 4.875 -20.25 Z M 2.609375 0 L 2.609375 -18.078125 L 7.15625 -18.078125 L 7.15625 0 Z M 2.609375 0 "/></g></g></g><g fill="#ffffff" fill-opacity="1"><g transform="translate(249.79773, 189.826716)"><g><path d="M 12.484375 -4.3125 L 13.65625 -0.953125 C 13.164062 -0.546875 12.546875 -0.226562 11.796875 0 C 11.054688 0.226562 10.21875 0.34375 9.28125 0.34375 C 7.320312 0.34375 5.832031 -0.1875 4.8125 -1.25 C 3.800781 -2.320312 3.296875 -3.875 3.296875 -5.90625 L 3.296875 -14.5 L 0.546875 -14.5 L 0.546875 -18.09375 L 3.296875 -18.09375 L 3.296875 -21.625 L 7.84375 -22.359375 L 7.84375 -18.09375 L 12.96875 -18.09375 L 12.96875 -14.5 L 7.84375 -14.5 L 7.84375 -6.234375 C 7.84375 -5.335938 8.023438 -4.679688 8.390625 -4.265625 C 8.765625 -3.859375 9.304688 -3.65625 10.015625 -3.65625 C 10.828125 -3.65625 11.53125 -3.875 12.125 -4.3125 Z M 12.484375 -4.3125 "/></g></g></g><g fill="#ffffff" fill-opacity="1"><g transform="translate(263.848464, 189.826716)"><g><path d="M 7.046875 0.34375 C 5.890625 0.34375 4.882812 0.128906 4.03125 -0.296875 C 3.175781 -0.722656 2.519531 -1.347656 2.0625 -2.171875 C 1.601562 -2.992188 1.375 -3.984375 1.375 -5.140625 C 1.375 -6.210938 1.601562 -7.113281 2.0625 -7.84375 C 2.519531 -8.570312 3.226562 -9.164062 4.1875 -9.625 C 5.15625 -10.09375 6.414062 -10.453125 7.96875 -10.703125 C 9.050781 -10.878906 9.875 -11.070312 10.4375 -11.28125 C 11 -11.488281 11.378906 -11.722656 11.578125 -11.984375 C 11.773438 -12.242188 11.875 -12.578125 11.875 -12.984375 C 11.875 -13.566406 11.671875 -14.007812 11.265625 -14.3125 C 10.859375 -14.613281 10.1875 -14.765625 9.25 -14.765625 C 8.238281 -14.765625 7.28125 -14.539062 6.375 -14.09375 C 5.46875 -13.644531 4.679688 -13.054688 4.015625 -12.328125 L 3.6875 -12.328125 L 1.78125 -15.203125 C 2.707031 -16.210938 3.828125 -17 5.140625 -17.5625 C 6.460938 -18.132812 7.910156 -18.421875 9.484375 -18.421875 C 11.867188 -18.421875 13.597656 -17.910156 14.671875 -16.890625 C 15.742188 -15.878906 16.28125 -14.441406 16.28125 -12.578125 L 16.28125 -4.71875 C 16.28125 -3.914062 16.632812 -3.515625 17.34375 -3.515625 C 17.613281 -3.515625 17.882812 -3.5625 18.15625 -3.65625 L 18.375 -3.59375 L 18.703125 -0.421875 C 18.453125 -0.265625 18.101562 -0.132812 17.65625 -0.03125 C 17.207031 0.0703125 16.71875 0.125 16.1875 0.125 C 15.101562 0.125 14.253906 -0.078125 13.640625 -0.484375 C 13.035156 -0.898438 12.601562 -1.550781 12.34375 -2.4375 L 12 -2.46875 C 11.113281 -0.59375 9.460938 0.34375 7.046875 0.34375 Z M 8.5 -3.046875 C 9.539062 -3.046875 10.375 -3.398438 11 -4.109375 C 11.632812 -4.816406 11.953125 -5.796875 11.953125 -7.046875 L 11.953125 -8.890625 L 11.640625 -8.953125 C 11.367188 -8.734375 11.007812 -8.550781 10.5625 -8.40625 C 10.125 -8.257812 9.488281 -8.113281 8.65625 -7.96875 C 7.675781 -7.800781 6.96875 -7.519531 6.53125 -7.125 C 6.101562 -6.726562 5.890625 -6.160156 5.890625 -5.421875 C 5.890625 -4.648438 6.117188 -4.0625 6.578125 -3.65625 C 7.035156 -3.25 7.675781 -3.046875 8.5 -3.046875 Z M 8.5 -3.046875 "/></g></g></g><g fill="#ffffff" fill-opacity="1"><g transform="translate(282.916146, 189.826716)"><g><path d="M 7.515625 0.34375 C 5.878906 0.34375 4.628906 -0.09375 3.765625 -0.96875 C 2.910156 -1.851562 2.484375 -3.191406 2.484375 -4.984375 L 2.484375 -25.34375 L 7.03125 -25.34375 L 7.03125 -5.171875 C 7.03125 -4.066406 7.488281 -3.515625 8.40625 -3.515625 C 8.664062 -3.515625 8.945312 -3.554688 9.25 -3.640625 L 9.484375 -3.578125 L 9.890625 -0.078125 C 9.640625 0.046875 9.304688 0.144531 8.890625 0.21875 C 8.472656 0.300781 8.015625 0.34375 7.515625 0.34375 Z M 7.515625 0.34375 "/></g></g></g></svg>